<?xml version="1.0" standalone="no"?>
<!DOCTYPE svg PUBLIC "-//W3C//DTD SVG 20010904//EN"
 "http://www.w3.org/TR/2001/REC-SVG-20010904/DTD/svg10.dtd">
<svg version="1.0" xmlns="http://www.w3.org/2000/svg"
 width="512.000000pt" height="512.000000pt" viewBox="0 0 512.000000 512.000000"
 preserveAspectRatio="xMidYMid meet">

<g transform="translate(0.000000,512.000000) scale(0.100000,-0.100000)"
fill="#000000" stroke="none">
<path d="M2430 4064 c174 -37 325 -104 457 -203 275 -204 440 -494 474 -832
26 -270 -52 -563 -214 -791 -10 -16 5 -34 120 -150 l133 -133 51 4 52 3 278
-278 c271 -272 278 -280 295 -339 14 -50 15 -69 6 -112 -13 -65 -59 -133 -105
-158 -20 -10 -34 -23 -31 -27 7 -12 102 -10 148 3 51 14 128 91 144 145 18 61
14 133 -9 184 -14 32 -92 115 -286 307 -273 269 -298 288 -350 269 -13 -5 -52
28 -154 130 l-136 136 52 84 c174 277 221 623 129 942 -104 359 -378 645 -738
771 -105 37 -234 61 -320 60 l-61 -1 65 -14z"/>
<path d="M2057 3694 c-510 -92 -791 -651 -562 -1119 96 -196 257 -336 465
-404 73 -23 182 -41 250 -40 43 0 42 1 -35 23 -271 75 -473 266 -562 531 -24
72 -27 95 -27 230 -1 171 14 240 85 375 99 190 297 346 509 399 l75 19 -60 0
c-33 0 -95 -6 -138 -14z"/>
<path d="M2870 1965 c-29 -28 -175 -105 -259 -136 -47 -17 -124 -40 -171 -50
l-85 -19 100 4 c151 8 362 68 474 137 l34 20 -29 30 c-31 33 -43 35 -64 14z"/>
</g>
</svg>
