<?xml version="1.0" standalone="no"?>
<!DOCTYPE svg PUBLIC "-//W3C//DTD SVG 20010904//EN"
 "http://www.w3.org/TR/2001/REC-SVG-20010904/DTD/svg10.dtd">
<svg version="1.0" xmlns="http://www.w3.org/2000/svg"
 width="512.000000pt" height="512.000000pt" viewBox="0 0 512.000000 512.000000"
 preserveAspectRatio="xMidYMid meet">

<g transform="translate(0.000000,512.000000) scale(0.100000,-0.100000)"
fill="#000000" stroke="none">
<path d="M1786 4950 c-629 -79 -1169 -463 -1442 -1026 -217 -448 -243 -989
-67 -1449 168 -441 488 -794 908 -1001 575 -283 1244 -251 1784 85 l84 52 93
-92 c83 -83 91 -94 83 -116 -16 -42 -10 -134 11 -177 13 -27 172 -193 462
-483 411 -410 448 -444 510 -472 92 -42 189 -56 279 -41 339 57 513 444 329
729 -16 25 -226 242 -467 483 -473 471 -457 458 -565 458 -26 0 -58 -4 -71 -9
-22 -8 -33 0 -116 83 l-92 93 52 84 c425 684 354 1559 -176 2179 -264 309
-658 530 -1080 606 -104 19 -415 27 -519 14z m427 -165 c555 -73 1025 -403
1281 -899 429 -834 89 -1858 -754 -2272 -245 -120 -462 -169 -750 -168 -407 1
-757 129 -1071 390 -587 488 -765 1329 -428 2019 316 648 1011 1023 1722 930z
m1275 -2928 c39 -40 72 -77 72 -82 0 -6 -48 -59 -108 -118 l-107 -107 -79 79
-79 79 109 111 c60 60 111 110 114 110 3 1 38 -32 78 -72z m377 -148 c19 -17
35 -36 35 -43 0 -6 -100 -112 -223 -234 l-223 -223 -37 40 c-29 32 -37 49 -37
78 0 35 11 49 188 225 176 176 190 188 224 188 27 0 47 -8 73 -31z m487 -487
c372 -372 381 -385 381 -517 0 -246 -255 -397 -472 -280 -31 17 -162 141 -372
351 l-324 324 225 225 c124 124 227 225 230 225 3 0 153 -147 332 -328z"/>
<path d="M1855 4634 c-405 -58 -664 -182 -926 -443 -230 -231 -366 -487 -425
-806 -26 -138 -26 -392 0 -530 59 -319 194 -574 425 -806 231 -230 487 -366
806 -425 138 -26 392 -26 530 0 319 59 575 195 806 425 230 231 366 487 425
806 25 135 26 402 1 530 -64 328 -212 603 -443 826 -222 214 -478 346 -784
404 -81 16 -352 28 -415 19z m420 -182 c543 -118 953 -536 1062 -1082 25 -122
24 -384 -1 -505 -101 -487 -432 -869 -892 -1028 -163 -56 -257 -71 -444 -71
-115 0 -191 5 -250 17 -554 110 -976 532 -1087 1085 -24 120 -24 384 0 504
115 572 557 999 1134 1093 119 19 357 13 478 -13z"/>
<path d="M1855 4226 c-68 -31 -95 -84 -95 -187 0 -57 -3 -71 -17 -76 -10 -3
-54 -21 -98 -39 l-79 -34 -51 49 c-61 60 -82 71 -134 71 -61 0 -87 -15 -168
-93 -94 -91 -106 -113 -101 -189 4 -56 7 -61 61 -116 l57 -58 -34 -79 c-18
-44 -36 -87 -39 -96 -4 -14 -23 -18 -91 -20 -91 -4 -118 -17 -160 -73 -19 -25
-21 -42 -21 -166 0 -124 2 -141 21 -166 42 -56 69 -69 160 -73 68 -2 87 -6 91
-20 3 -9 21 -52 39 -96 l34 -79 -57 -58 c-54 -55 -57 -60 -61 -116 -5 -76 7
-98 101 -189 81 -78 107 -93 168 -93 52 0 73 11 134 71 l51 49 79 -34 c44 -18
87 -36 96 -39 14 -4 18 -23 20 -91 4 -91 17 -118 73 -160 25 -19 42 -21 166
-21 124 0 141 2 166 21 56 42 69 69 73 160 2 68 6 87 20 91 9 3 52 21 96 39
l79 34 56 -54 c59 -58 82 -69 141 -68 54 1 84 20 171 109 83 86 93 107 86 184
-5 45 -11 57 -62 108 l-56 57 34 79 c18 44 36 87 39 96 4 14 23 18 91 20 91 4
118 17 160 73 19 25 21 42 21 166 0 124 -2 141 -21 166 -42 56 -69 69 -160 73
-68 2 -87 6 -91 20 -3 9 -21 52 -39 96 l-34 79 56 57 c51 51 57 63 62 108 7
77 -3 98 -86 184 -87 89 -117 108 -171 109 -59 1 -82 -10 -141 -68 l-56 -54
-79 34 c-44 18 -87 36 -96 39 -14 4 -18 23 -20 91 -4 91 -17 118 -73 160 -24
18 -44 21 -154 24 -91 1 -135 -2 -157 -12z m225 -245 c0 -124 10 -139 120
-171 41 -12 107 -39 147 -61 40 -21 84 -39 99 -39 19 0 46 19 100 72 l75 72
56 -57 57 -56 -72 -75 c-53 -54 -72 -81 -72 -100 0 -15 18 -59 39 -99 22 -40
49 -106 61 -147 32 -110 47 -120 171 -120 l99 0 0 -80 0 -80 -99 0 c-124 0
-139 -10 -171 -120 -12 -41 -39 -107 -61 -147 -21 -40 -39 -84 -39 -99 0 -19
19 -46 72 -100 l72 -75 -57 -56 -56 -57 -75 72 c-54 53 -81 72 -100 72 -15 0
-59 -18 -99 -39 -40 -22 -106 -49 -147 -61 -110 -32 -120 -47 -120 -171 l0
-99 -80 0 -80 0 0 99 c0 124 -10 139 -120 171 -41 12 -107 39 -147 61 -40 21
-84 39 -99 39 -19 0 -46 -19 -100 -72 l-75 -72 -56 57 -57 56 72 75 c53 54 72
81 72 100 0 15 -18 59 -39 99 -22 40 -49 106 -61 147 -32 110 -47 120 -171
120 l-99 0 0 80 0 80 99 0 c124 0 139 10 171 120 12 41 39 107 61 147 21 40
39 84 39 99 0 19 -19 46 -72 100 l-72 75 57 56 56 57 75 -72 c54 -53 81 -72
100 -72 15 0 59 18 99 39 40 22 106 49 147 61 110 32 120 47 120 171 l0 99 80
0 80 0 0 -99z"/>
<path d="M1881 3584 c-253 -68 -410 -331 -346 -579 67 -256 329 -415 580 -350
237 62 393 291 358 529 -40 283 -322 473 -592 400z m254 -175 c63 -30 123 -90
155 -154 20 -41 25 -65 25 -135 -1 -77 -4 -91 -34 -148 -38 -70 -70 -101 -145
-140 -43 -22 -64 -26 -136 -26 -70 -1 -94 4 -135 24 -260 128 -238 495 35 594
63 23 170 16 235 -15z"/>
</g>
</svg>
