<svg version="1.1" id="Layer_1" xmlns="http://www.w3.org/2000/svg" xmlns:xlink="http://www.w3.org/1999/xlink" x="0px" y="0px"
	 width="100%" viewBox="0 0 512 538" enable-background="new 0 0 512 538" xml:space="preserve">
<path fill="#000000" opacity="1.000000" stroke="none" 
	d="
M280.000000,539.000000 
	C186.688751,539.000000 93.877510,539.000000 1.033133,539.000000 
	C1.033133,359.731445 1.033133,180.462860 1.033133,1.097140 
	C171.561249,1.097140 342.122589,1.097140 512.841919,1.097140 
	C512.841919,180.333221 512.841919,359.666595 512.841919,539.000000 
	C435.462799,539.000000 357.981415,539.000000 280.000000,539.000000 
M404.000610,455.499390 
	C418.608185,470.108765 433.190277,484.743713 447.834442,499.316315 
	C454.813843,506.261597 465.660492,506.483185 473.441681,501.270050 
	C483.339386,494.639038 482.896545,477.968658 474.993774,470.220673 
	C441.557892,437.439728 408.632263,404.138367 375.527161,371.020203 
	C374.263489,369.756042 373.072937,368.418762 371.883759,367.153259 
	C430.079987,294.609894 425.878204,179.979370 342.939484,113.490936 
	C277.033478,60.656952 170.701553,57.318050 100.235428,131.460175 
	C38.633472,196.275711 33.003918,302.330597 97.465385,374.786194 
	C128.576096,409.755096 168.236206,429.739746 214.723083,433.706177 
	C262.291382,437.764862 305.906403,425.653870 343.655670,395.089172 
	C363.698578,415.153931 383.599609,435.076660 404.000610,455.499390 
z"/>
<path fill="#9A9CA3" opacity="1.000000" stroke="none" 
	d="
M403.750610,455.249390 
	C383.599609,435.076660 363.698578,415.153931 343.655670,395.089172 
	C305.906403,425.653870 262.291382,437.764862 214.723083,433.706177 
	C168.236206,429.739746 128.576096,409.755096 97.465385,374.786194 
	C33.003918,302.330597 38.633472,196.275711 100.235428,131.460175 
	C170.701553,57.318050 277.033478,60.656952 342.939484,113.490936 
	C425.878204,179.979370 430.079987,294.609894 371.883759,367.153259 
	C373.072937,368.418762 374.263489,369.756042 375.527161,371.020203 
	C408.632263,404.138367 441.557892,437.439728 474.993774,470.220673 
	C482.896545,477.968658 483.339386,494.639038 473.441681,501.270050 
	C465.660492,506.483185 454.813843,506.261597 447.834442,499.316315 
	C433.190277,484.743713 418.608185,470.108765 403.750610,455.249390 
M166.656769,130.063583 
	C163.279800,132.036575 159.779373,133.827255 156.548080,136.015366 
	C144.970764,143.855103 134.086548,152.418869 125.037033,163.303207 
	C115.654762,174.587769 107.602585,186.661102 102.130569,200.200577 
	C93.375725,221.862808 89.197769,244.265869 91.860756,267.853607 
	C93.619278,283.429901 97.448639,298.234863 103.822365,312.500031 
	C112.830200,332.660736 125.766220,349.878448 143.138351,363.398621 
	C151.852478,370.180573 161.243439,376.416534 171.116272,381.309418 
	C185.586975,388.480896 201.119339,392.478058 217.386978,394.217682 
	C234.350479,396.031738 250.866226,394.647552 267.140411,390.314789 
	C285.895874,385.321411 302.769623,376.582642 318.220398,364.573608 
	C334.248016,352.116241 346.495514,336.804474 355.869934,319.129578 
	C363.458313,304.822113 367.790527,289.452911 370.294769,273.315521 
	C372.504395,259.076782 372.105682,245.051727 369.743073,231.177521 
	C367.064301,215.446671 361.811829,200.399597 353.840332,186.342133 
	C343.565582,168.222992 329.942261,153.188507 313.302704,140.864441 
	C290.467865,123.951851 264.425262,115.761246 236.332520,114.176674 
	C228.040176,113.708946 219.607986,115.121498 211.279022,116.030838 
	C195.748947,117.726364 181.223450,122.756050 166.656769,130.063583 
z"/>
<path fill="#000000" opacity="1.000000" stroke="none" 
	d="
M167.028839,129.995056 
	C181.223450,122.756050 195.748947,117.726364 211.279022,116.030838 
	C219.607986,115.121498 228.040176,113.708946 236.332520,114.176674 
	C264.425262,115.761246 290.467865,123.951851 313.302704,140.864441 
	C329.942261,153.188507 343.565582,168.222992 353.840332,186.342133 
	C361.811829,200.399597 367.064301,215.446671 369.743073,231.177521 
	C372.105682,245.051727 372.504395,259.076782 370.294769,273.315521 
	C367.790527,289.452911 363.458313,304.822113 355.869934,319.129578 
	C346.495514,336.804474 334.248016,352.116241 318.220398,364.573608 
	C302.769623,376.582642 285.895874,385.321411 267.140411,390.314789 
	C250.866226,394.647552 234.350479,396.031738 217.386978,394.217682 
	C201.119339,392.478058 185.586975,388.480896 171.116272,381.309418 
	C161.243439,376.416534 151.852478,370.180573 143.138351,363.398621 
	C125.766220,349.878448 112.830200,332.660736 103.822365,312.500031 
	C97.448639,298.234863 93.619278,283.429901 91.860756,267.853607 
	C89.197769,244.265869 93.375725,221.862808 102.130569,200.200577 
	C107.602585,186.661102 115.654762,174.587769 125.037033,163.303207 
	C134.086548,152.418869 144.970764,143.855103 156.548080,136.015366 
	C159.779373,133.827255 163.279800,132.036575 167.028839,129.995056 
z"/>
</svg>