<?xml version="1.0" encoding="UTF-8"?>
<svg version="1.1" xmlns="http://www.w3.org/2000/svg" width="512" height="538">
<path d="M0 0 C0.68396851 -0.00067474 1.36793701 -0.00134949 2.07263184 -0.00204468 C51.32817936 0.07475114 95.83298304 20.38879383 130.71484375 54.68310547 C134.56278016 58.61059527 137.9285037 62.87763482 141.25 67.25 C141.98605469 68.18199219 142.72210938 69.11398438 143.48046875 70.07421875 C161.54599163 93.36350729 172.89374959 120.35972434 178.25 149.25 C178.5903125 151.06564453 178.5903125 151.06564453 178.9375 152.91796875 C186.02089837 198.81248736 174.34245825 247.56336654 147.125 285.1875 C145.5338854 287.2405511 143.92376913 289.264081 142.25 291.25 C143.7396908 294.72014825 145.70973653 296.95039582 148.38059998 299.60092163 C149.67820755 300.89614998 149.67820755 300.89614998 151.00202942 302.21754456 C151.96277971 303.16643273 152.9236132 304.11523667 153.88452148 305.06396484 C154.89516544 306.06913183 155.90534687 307.07476403 156.9151001 308.08082581 C159.0889271 310.24494714 161.26577245 312.40596973 163.44494438 314.56470871 C166.8921365 317.98006576 170.33113873 321.40358946 173.76881409 324.82852173 C182.30931567 333.33494827 190.859062 341.83206685 199.41369629 350.32427979 C206.061009 356.92311446 212.7050938 363.52511959 219.3386808 370.13775599 C222.75362607 373.54119213 226.17539253 376.93756958 229.60246456 380.32879233 C231.73571964 382.44281905 233.86266088 384.56311165 235.98791504 386.68517876 C236.97250762 387.66576138 237.95967699 388.64376472 238.94963264 389.61893272 C240.30417956 390.95397481 241.64854199 392.29932643 242.99241638 393.64511108 C243.74661078 394.39394247 244.50080519 395.14277386 245.27785397 395.9142971 C250.12947283 401.66029158 250.85161833 406.75024905 250.66015625 414.05078125 C250.05901522 418.73968126 248.56751165 421.89112287 245.25 425.25 C240.95710959 428.46262259 236.43512777 430.38182756 231.0625 430.5625 C230.34707031 430.59988281 229.63164062 430.63726562 228.89453125 430.67578125 C219.72758368 429.19986207 213.91545171 422.46564867 207.703125 416.15722656 C206.66833547 415.12130709 205.63266108 414.08627088 204.59617615 413.05204773 C201.80052368 410.2575376 199.01733165 407.45091403 196.23629379 404.64186954 C193.32204285 401.70252478 190.39637458 398.7745884 187.47192383 395.84539795 C181.942773 390.30384076 176.42389345 384.75217128 170.90867519 379.19675136 C164.6263467 372.86963226 158.33258524 366.55393833 152.03786087 360.23915529 C139.09585552 347.25539863 126.16820161 334.25743827 113.25 321.25 C111.8374921 322.18200501 110.42629251 323.11599299 109.015625 324.05078125 C108.22961914 324.57067627 107.44361328 325.09057129 106.63378906 325.6262207 C104.36951665 327.16858815 102.18315824 328.78314464 100 330.4375 C71.0125099 350.70627215 35.82464484 359.71117463 0.8125 359.625 C-0.02182556 359.62445618 -0.85615112 359.62391235 -1.71575928 359.62335205 C-15.39499418 359.58247752 -28.44521644 358.64663602 -41.75 355.25 C-43.03463135 354.92854004 -43.03463135 354.92854004 -44.34521484 354.60058594 C-75.4130577 346.59623265 -102.75329376 330.43743799 -125.75 308.25 C-126.52601562 307.52554687 -127.30203125 306.80109375 -128.1015625 306.0546875 C-152.60375856 282.59145382 -168.55470223 250.07812382 -175.75 217.25 C-175.9977417 216.14325928 -175.9977417 216.14325928 -176.25048828 215.01416016 C-185.9346776 169.61764497 -175.37767174 120.10239565 -150.5234375 81.33691406 C-123.75304228 40.90066386 -82.78243471 13.20870464 -35.38671875 3.31640625 C-23.51250671 0.96241004 -12.10330051 0.01077326 0 0 Z M-90.75 73.25 C-91.72582031 74.08144531 -92.70164063 74.91289062 -93.70703125 75.76953125 C-121.13375551 99.5561256 -136.7814916 134.41488122 -139.75 170.25 C-142.29759871 208.03179878 -129.32232002 244.19981294 -104.75268555 272.72851562 C-103.42614817 274.24245089 -102.08841118 275.74655166 -100.75 277.25 C-100.12996094 277.95511719 -99.50992188 278.66023437 -98.87109375 279.38671875 C-79.5981265 299.95317374 -53.0274953 312.61321748 -25.75 318.25 C-24.68394531 318.47558594 -23.61789063 318.70117188 -22.51953125 318.93359375 C12.35533408 325.09297922 48.76502582 316.26642743 78.3203125 297.27734375 C81.03851428 295.34765823 83.65220584 293.33886957 86.25 291.25 C87.01473633 290.64333496 87.01473633 290.64333496 87.79492188 290.02441406 C117.39494576 266.41191002 135.87663268 233.12735947 140.5 195.5625 C144.34821981 160.2550832 134.71218102 124.16918801 113.29296875 95.78125 C108.3068983 89.60348011 102.93703941 83.78738047 97.25 78.25 C96.57517578 77.5075 96.57517578 77.5075 95.88671875 76.75 C72.91241367 52.12245708 37.10663471 40.7780499 4.4140625 39.046875 C-30.37381431 38.58610842 -64.57055949 50.12801239 -90.75 73.25 Z " fill="#9A9CA3" transform="translate(229.75,73.75)"/>
</svg>
