<?xml version="1.0" standalone="no"?>
<!DOCTYPE svg PUBLIC "-//W3C//DTD SVG 20010904//EN"
 "http://www.w3.org/TR/2001/REC-SVG-20010904/DTD/svg10.dtd">
<svg version="1.0" xmlns="http://www.w3.org/2000/svg"
 width="512.000000pt" height="512.000000pt" viewBox="0 0 512.000000 512.000000"
 preserveAspectRatio="xMidYMid meet">

<g transform="translate(0.000000,512.000000) scale(0.100000,-0.100000)"
fill="#000000" stroke="none">
<path d="M1729 4970 c-677 -61 -1256 -517 -1469 -1159 -71 -213 -84 -297 -84
-546 0 -191 3 -234 22 -325 81 -375 250 -676 526 -937 265 -251 598 -408 959
-453 140 -18 423 -8 550 20 355 76 653 241 897 496 222 233 377 527 440 834
113 556 -46 1115 -437 1531 -294 312 -684 501 -1114 539 -126 11 -163 11 -290
0z m446 -195 c197 -35 413 -125 595 -246 126 -83 324 -281 408 -408 279 -417
345 -924 181 -1387 -160 -452 -517 -804 -968 -954 -173 -58 -247 -71 -436 -77
-187 -6 -289 4 -438 41 -730 185 -1227 876 -1167 1620 51 623 454 1146 1039
1350 89 31 245 67 351 80 72 9 348 -3 435 -19z"/>
<path d="M1735 4654 c-106 -16 -213 -41 -299 -71 -484 -168 -831 -570 -933
-1079 -24 -123 -24 -385 1 -509 58 -294 184 -533 391 -741 340 -342 818 -486
1290 -389 696 144 1191 818 1116 1518 -68 628 -509 1117 -1131 1252 -73 16
-369 29 -435 19z m363 -169 c513 -83 918 -474 1029 -995 25 -117 24 -371 -1
-488 -65 -306 -235 -574 -481 -760 -91 -69 -286 -165 -399 -197 -133 -38 -208
-48 -356 -48 -853 1 -1452 835 -1184 1648 61 184 162 346 308 490 148 146 300
240 493 304 178 59 402 77 591 46z"/>
<path d="M1851 3944 c-13 -10 -62 -95 -117 -208 -53 -106 -102 -194 -112 -198
-9 -4 -105 -19 -212 -34 -107 -15 -207 -33 -222 -41 -30 -14 -44 -49 -34 -86
3 -13 75 -92 161 -176 106 -105 155 -159 155 -174 0 -12 -16 -111 -35 -220
-35 -203 -35 -228 0 -257 34 -28 77 -14 271 89 l191 101 203 -107 c220 -116
231 -118 273 -62 l19 27 -38 221 -38 222 162 162 c140 140 162 166 162 194 0
65 -15 72 -240 104 -113 17 -214 32 -225 34 -15 3 -45 55 -115 196 -52 105
-106 200 -119 210 -29 23 -59 24 -90 3z"/>
<path d="M3604 2117 c-12 -6 -155 -143 -318 -304 -282 -277 -296 -293 -296
-328 0 -35 13 -50 192 -234 1061 -1084 1011 -1037 1147 -1073 284 -74 559 110
602 402 8 61 8 89 -5 150 -27 129 -52 166 -252 374 -434 452 -1000 1016 -1024
1021 -14 3 -35 -1 -46 -8z"/>
</g>
</svg>
